<?xml version="1.0" encoding="utf-8"?>
<!-- Generator: Adobe Illustrator 27.5.0, SVG Export Plug-In . SVG Version: 6.00 Build 0)  -->
<svg version="1.1" xmlns="http://www.w3.org/2000/svg" xmlns:xlink="http://www.w3.org/1999/xlink" x="0px" y="0px"
	 viewBox="2649.131 -1808.397 4554.651 3588.58" style="enable-background:new 2649.131 -1808.397 4554.651 3588.58;"
	 xml:space="preserve">
<g id="Layer_1">
</g>
<g id="Layer_2">
</g>
<g id="Dimensions">
	<rect x="2649.131" y="-1808.397" width="4554.651" height="3588.58"/>
	<g id="Layer_x5F_1_00000148652116272034178230000005060896239980862127_">
		<path style="fill-rule:evenodd;clip-rule:evenodd;fill:#FFFFFF;" d="M5379.402,916.172c78.517-68.653,333.107-276.996,191-381.25
			c-199.296-146.222-792.874-102.751-821.55-427.955c-17.637-200.211,205.371-310.408,333.859-437.23
			c49.514-48.861,215.888-240.579,171.926-312.27c-30.309-49.448-162.683-0.261-200.276,21.262
			C4776.059-461.984,4664.163-0.65,4684.217,300.679c10.451,157.262-0.686,388.892,158.339,479.591
			c191.621,109.316,489.161-111.406,629.766-224.478c-156.347,203.999-402.871,474.235-692.801,398.723
			c-247.308-64.407-412.049-394.608-427.856-631.758c-27.696-416.033,125.254-950.266,480.114-1197.214
			c213.7-148.705,552.164-193.711,706.584,57.091c164.121,266.545-63.231,577.508-255.963,757.241
			c-29.819,27.794-126.528,104.515-177.185,148.933c90.242,65.55,279.152,152.101,341.795,186.722
			c431.776,238.914,316.385,441.117-67.608,640.576V916.172z"/>
		
			<linearGradient id="SVGID_1_" gradientUnits="userSpaceOnUse" x1="4840.9131" y1="132.8743" x2="5850.4565" y2="-712.0708" gradientTransform="matrix(1 0 0 1 7.000000e-04 -7.000000e-04)">
			<stop  offset="0.1771" style="stop-color:#FFFFFF"/>
			<stop  offset="0.2232" style="stop-color:#EBEBEB"/>
			<stop  offset="0.4247" style="stop-color:#999999"/>
			<stop  offset="0.6032" style="stop-color:#575757"/>
			<stop  offset="0.7521" style="stop-color:#282828"/>
			<stop  offset="0.8657" style="stop-color:#0B0B0B"/>
			<stop  offset="0.9306" style="stop-color:#000000"/>
		</linearGradient>
		<path style="fill-rule:evenodd;clip-rule:evenodd;fill:url(#SVGID_1_);" d="M5251.274-564.865
			c201.092-407.901-345.519-550.661-663.57-46.836c-31.354,49.677-62.415,103.208-92.691,159.417
			c-113.3,244.139-159.646,530.117-143.316,775.106c15.775,237.15,180.549,567.351,427.857,631.758
			c289.93,75.512,536.454-194.724,692.801-398.723c-140.604,113.072-438.112,333.794-629.766,224.478
			c-159.025-90.732-147.855-322.33-158.339-479.591c-20.054-301.329,91.842-762.662,370.145-921.949
			c37.592-21.523,169.967-70.711,200.276-21.262c11.692,19.041,8.524,46.574-3.364,77.635L5251.274-564.865z"/>
		
			<linearGradient id="SVGID_00000104679483435298901540000013120362070443161013_" gradientUnits="userSpaceOnUse" x1="5676.772" y1="-551.2922" x2="4639.7959" y2="145.511" gradientTransform="matrix(1 0 0 1 7.000000e-04 -7.000000e-04)">
			<stop  offset="0.1771" style="stop-color:#FFFFFF"/>
			<stop  offset="0.2232" style="stop-color:#EBEBEB"/>
			<stop  offset="0.4247" style="stop-color:#999999"/>
			<stop  offset="0.6032" style="stop-color:#575757"/>
			<stop  offset="0.7521" style="stop-color:#282828"/>
			<stop  offset="0.8657" style="stop-color:#0B0B0B"/>
			<stop  offset="0.9306" style="stop-color:#000000"/>
		</linearGradient>
		<path style="fill-rule:evenodd;clip-rule:evenodd;fill:url(#SVGID_00000104679483435298901540000013120362070443161013_);" d="
			M5575.367-738.98c27.762,137.012-70.515,351.757-400.944,602.755c-126.724,96.251-129.271,166.145-67.967,223.988
			c50.983-44.582,146.386-120.29,175.977-147.855C5456.547-222.449,5658.88-491.934,5575.367-738.98z"/>
		
			<linearGradient id="SVGID_00000131357780967757426630000016005840049182270386_" gradientUnits="userSpaceOnUse" x1="4802.5215" y1="213.166" x2="5817.5483" y2="586.257" gradientTransform="matrix(1 0 0 1 7.000000e-04 -7.000000e-04)">
			<stop  offset="0.1771" style="stop-color:#FFFFFF"/>
			<stop  offset="0.2232" style="stop-color:#EBEBEB"/>
			<stop  offset="0.4247" style="stop-color:#999999"/>
			<stop  offset="0.6032" style="stop-color:#575757"/>
			<stop  offset="0.7521" style="stop-color:#282828"/>
			<stop  offset="0.8657" style="stop-color:#0B0B0B"/>
			<stop  offset="0.9306" style="stop-color:#000000"/>
		</linearGradient>
		<path style="fill-rule:evenodd;clip-rule:evenodd;fill:url(#SVGID_00000131357780967757426630000016005840049182270386_);" d="
			M5527.584,775.501c448.727-466.135-955.23-490.892-718.93-855.942c-40.924,54.021-66.204,114.803-59.802,187.44
			c28.644,325.204,622.254,281.732,821.55,427.955c82.958,60.88,30.701,157.262-42.818,240.58V775.501z"/>
	</g>
</g>
<g id="Layer_4">
</g>
</svg>
